<?xml version="1.0" encoding="UTF-8"?>
<svg width="128px" height="58px" viewBox="0 0 128 58" version="1.1" xmlns="http://www.w3.org/2000/svg" xmlns:xlink="http://www.w3.org/1999/xlink">
    <!-- Generator: sketchtool 58 (101010) - https://sketch.com -->
    <title>63430908-A352-4F82-8622-9F8597FBDAF7</title>
    <desc>Created with sketchtool.</desc>
    <g id="Desktop" stroke="none" stroke-width="1" fill="none" fill-rule="evenodd">
        <g id="Homepage" transform="translate(-85.000000, -23.000000)" fill="#000000">
            <g id="Header-/-01-Header-/-Full-02">
                <g id="Logo-black-Logo-/-wo-tagline-/-black" transform="translate(80.000000, 20.000000)">
                    <g id="Group-2" transform="translate(5.848512, 51.075728)">
                        <path d="M2.82935683e-14,9.3730444 L2.82935683e-14,8.92524017 L0.6028215,8.95616076 C0.803798329,8.95616076 0.911916017,8.84804756 0.911916017,8.61646974 L0.911916017,0.911144968 L0.911916017,0.679458268 C0.911916017,0.60226566 0.865486445,0.571236192 0.757368758,0.586805364 L0.108117687,0.617617082 L0.108117687,0.154461433 L2.48855963,0.154461433 L6.09033907,7.64366868 L9.45997066,0.154461433 L11.7167094,0.154461433 L11.7167094,0.617617082 L11.1912705,0.586805364 C11.0057702,0.571236192 10.882176,0.725839158 10.882176,0.895575796 L10.882176,8.61646974 C10.882176,8.84804756 10.9902937,8.95616076 11.1912705,8.95616076 L11.793983,8.92524017 L11.793983,9.3730444 L8.39361637,9.3730444 L8.39361637,8.92524017 L9.15087614,8.95616076 C9.35185297,8.95616076 9.45997066,8.84804756 9.45997066,8.61646974 L9.45997066,1.34338002 L5.78102657,9.52742961 L5.41024394,9.52742961 L1.43746389,1.25083599 L1.43746389,8.61646974 C1.43746389,8.84804756 1.53032303,8.95616076 1.73129986,8.95616076 L2.48855963,8.92524017 L2.48855963,9.3730444 L2.82935683e-14,9.3730444 Z" id="Fill-61"></path>
                        <path d="M22.6758549,5.72891123 L25.9529543,5.72891123 L24.2990371,1.83759789 L22.6758549,5.72891123 Z M19.9859913,9.37307721 L19.9859913,8.9251641 L20.387836,8.95619357 L20.449851,8.95619357 C20.6508279,8.95619357 20.8209606,8.86343179 20.9598134,8.66266568 C21.1143606,8.44654815 21.2692349,8.15312913 21.4237821,7.76716609 L24.6544519,-1.76600913e-14 L25.0562965,-1.76600913e-14 L28.3179193,7.79797781 C28.4723576,8.18404973 28.6269048,8.47735987 28.7661935,8.67812598 C28.9054822,8.86343179 29.0751791,8.95619357 29.3073269,8.95619357 L29.3846005,8.95619357 L29.8945629,8.9251641 L29.8945629,9.37307721 L25.7980797,9.37307721 L25.7980797,8.9251641 L26.5557754,8.95619357 C27.1738555,9.00235671 27.0657378,8.46200845 26.8648699,7.98339249 L26.1075012,6.16114609 L22.5213074,6.16114609 L21.7948917,7.89052184 C21.5627439,8.43119673 21.4081966,9.01792589 21.9184859,8.971545 L22.6602691,8.9251641 L22.6602691,9.37307721 L19.9859913,9.37307721 Z" id="Fill-62"></path>
                        <path d="M42.6468693,3.26626003e-05 C43.4970972,3.26626003e-05 44.2080364,0.154417892 45.1354289,0.57130156 C45.3208202,0.648603049 45.5065385,0.664063347 45.8620626,0.664063347 C45.815524,0.895532315 45.8003744,1.25079254 45.8003744,1.72940853 L45.8003744,2.05374816 C45.8003744,2.13094077 45.8003744,2.19267309 45.815524,2.25451428 L45.815524,2.43982011 L45.8620626,2.68696712 L45.2435466,2.68696712 C45.2591321,2.60955676 45.2591321,2.53236414 45.2591321,2.45517153 C45.2591321,2.1462922 45.2127025,1.88379376 45.1045848,1.65232479 C44.7335842,0.771958807 43.8216682,0.38610461 42.5695957,0.38610461 C40.8536634,0.38610461 39.5860053,1.80660114 39.5860053,4.81776636 C39.5860053,7.82893157 40.7299602,9.11050317 42.6468693,9.11050317 C43.5587853,9.11050317 44.0534891,8.95622682 44.6254665,8.40020047 L44.6254665,5.92960131 C44.6254665,5.69791459 44.5326074,5.58991025 44.3316306,5.58991025 L43.4198236,5.62072197 L43.4198236,5.17291771 L46.9904319,5.17291771 L46.9904319,5.62072197 L46.3567664,5.58991025 C46.1710481,5.58991025 46.0629304,5.74429548 46.0629304,5.91403213 L46.0629304,8.83265331 C45.9856568,8.81719301 45.9239686,8.81719301 45.846368,8.81719301 L45.5373825,8.84800473 C45.3672498,8.87903421 45.197444,8.92519735 45.0582642,8.97157824 L44.2388804,9.2648884 C43.5587853,9.49657512 43.2961204,9.52738684 42.5695957,9.52738684 C39.725185,9.52738684 38.0095797,7.96796538 38.0095797,4.81776636 C38.0095797,1.60594389 39.69445,3.26626003e-05 42.6468693,3.26626003e-05" id="Fill-63"></path>
                        <path d="M57.4083031,5.72891123 L60.6854025,5.72891123 L59.0313763,1.83759789 L57.4083031,5.72891123 Z M54.7187666,9.37307721 L54.7187666,8.9251641 L55.1206112,8.95619357 L55.1822993,8.95619357 C55.3832762,8.95619357 55.5534089,8.86343179 55.6926976,8.66266568 C55.8471359,8.44654815 56.0016832,8.15312913 56.1562304,7.76716609 L59.3869002,-1.76600913e-14 L59.7887448,-1.76600913e-14 L63.0505856,7.79797781 C63.2051328,8.18404973 63.3596801,8.47735987 63.4985328,8.67812598 C63.6379305,8.86343179 63.8079543,8.95619357 64.0397752,8.95619357 L64.1170488,8.95619357 L64.6273381,8.9251641 L64.6273381,9.37307721 L60.530855,9.37307721 L60.530855,8.9251641 L61.2882237,8.95619357 C61.9066307,9.00235671 61.798622,8.46200845 61.5976452,7.98339249 L60.8399495,6.16114609 L57.2537557,6.16114609 L56.52734,7.89052184 C56.2955191,8.43119673 56.1409719,9.01792589 56.6509342,8.971545 L57.3930444,8.9251641 L57.3930444,9.37307721 L54.7187666,9.37307721 Z" id="Fill-64"></path>
                        <path d="M72.572284,9.37304442 L72.572284,8.95616078 L77.5186684,0.586805365 L75.1845469,0.586805365 C73.715912,0.586805365 73.0049728,1.18910369 73.0049728,2.53240749 L72.5875426,2.53240749 L72.5875426,0.108080544 L72.7732608,0.108080544 C72.8812695,0.108080544 73.0358168,0.12354084 73.2215351,0.139001137 L73.778036,0.139001137 C73.9633184,0.139001137 74.1333422,0.139001137 74.2727399,0.154461434 L79.2189063,0.154461434 L79.2189063,0.525073054 L74.2263103,8.95616078 L76.9158469,8.95616078 C78.3223578,8.95616078 79.2346008,8.15309636 79.2346008,6.79433225 L79.651704,6.79433225 L79.5280008,9.43477673 C79.3891481,9.38850471 78.8171706,9.37304442 77.7815513,9.37304442 L72.572284,9.37304442 Z" id="Fill-65"></path>
                        <path d="M88.462415,9.37304456 L88.462415,8.92524033 L89.0652365,8.95616092 C89.2662133,8.95616092 89.3587455,8.84804772 89.3587455,8.61646989 L89.3587455,0.911144982 C89.3587455,0.74119059 89.2662133,0.571236199 89.0652365,0.586805371 L88.462415,0.61761709 L88.462415,0.154461433 L91.7083434,0.154461433 L91.7083434,0.61761709 L91.1055219,0.586805371 C90.9202396,0.571236199 90.7964274,0.725839169 90.7964274,0.911144982 L90.7964274,8.61646989 C90.7964274,8.84804772 90.9045451,8.95616092 91.1055219,8.95616092 L91.7083434,8.92524033 L91.7083434,9.37304456 L88.462415,9.37304456 Z" id="Fill-66"></path>
                        <path d="M100.90564,9.37304468 L100.90564,8.92524044 L101.508462,8.95616104 C101.709439,8.95616104 101.817556,8.84804783 101.817556,8.61647 L101.817556,0.911144991 C101.817556,0.741190598 101.709439,0.571236204 101.508462,0.586805377 L100.90564,0.617617096 L100.90564,0.154461433 L103.301341,0.154461433 L108.325325,6.99509855 L108.325325,0.895575819 C108.325325,0.694809706 108.232575,0.586805377 108.062442,0.586805377 L108.015904,0.586805377 L107.258644,0.617617096 L107.258644,0.154461433 L109.747531,0.154461433 L109.747531,0.617617096 L109.144382,0.586805377 L109.113538,0.586805377 C108.943405,0.586805377 108.850873,0.694809706 108.850873,0.911144991 L108.850873,9.46569759 L108.387122,9.46569759 L102.343104,1.26629632 L102.343104,8.61647 C102.343104,8.84804783 102.435963,8.95616104 102.63694,8.95616104 L103.394309,8.92524044 L103.394309,9.37304468 L100.90564,9.37304468 Z" id="Fill-67"></path>
                        <path d="M118.944168,9.37304444 L118.944168,8.90977991 L119.562357,8.9561608 C119.747966,8.9561608 119.840498,8.8480476 119.840498,8.61646977 L119.840498,0.911144974 C119.840498,0.725839163 119.716795,0.571236196 119.531513,0.586805368 L118.944168,0.617617086 L118.944168,0.154461436 L125.142625,0.154461436 L125.467305,0.154461436 C125.590899,0.154461436 125.683758,0.154461436 125.730188,0.139001139 L125.730188,2.5324075 L125.312757,2.5324075 C125.312757,1.15807422 124.647921,0.586805368 123.117598,0.586805368 L121.463572,0.586805368 C121.339868,0.586805368 121.278289,0.663997976 121.278289,0.803031772 L121.278289,4.35454501 L122.731339,4.35454501 C123.411325,4.35454501 123.906138,3.78316728 123.906138,2.79490592 L124.323241,2.79490592 L124.323241,6.36187946 L123.906138,6.36187946 C123.906138,5.4353504 123.365004,4.78678007 122.731339,4.78678007 L121.278289,4.78678007 L121.278289,8.7399344 C121.278289,8.87896819 121.339868,8.94059163 121.463572,8.94059163 L123.627996,8.94059163 C125.034507,8.94059163 125.776399,8.10693323 125.776399,6.60902645 L126.193829,6.60902645 L126.193829,9.41942533 C125.962008,9.38850473 125.498149,9.37304444 124.83353,9.37304444 L118.944168,9.37304444 Z" id="Fill-68"></path>
                    </g>
                    <g id="Group" transform="translate(5.848512, 2.982524)">
                        <polygon id="Fill-69" points="0 20.3296271 12.3462332 20.3296271 12.3462332 8.06416774 16.2128574 8.06416774 16.2128574 20.3296271 28.4914081 20.3296271 28.4914081 23.853486 16.2128574 23.853486 16.2128574 36.1867747 12.3462332 36.1867747 12.3462332 23.853486 0 23.853486"></polygon>
                        <path d="M54.1324983,13.824119 C54.1324983,7.92851961 52.1652359,2.03281131 47.3487671,2.03281131 C42.6001988,2.03281131 41.1079131,6.16659006 41.1079131,13.7562897 C41.1079131,18.9066374 41.9897481,25.3443272 47.3487671,25.3443272 C53.3185639,25.3443272 54.1324983,20.0585385 54.1324983,13.824119 M62.9513919,18.5677083 C62.9513919,30.6298976 59.0167582,41.8791148 45.1103383,41.8791148 C38.2587067,41.8791148 33.9172148,38.558526 33.9172148,34.7635674 C33.9172148,32.0530071 35.7487851,30.4266274 38.2587067,30.4266274 C40.9043204,30.4266274 42.5325162,31.5786373 42.5325162,33.5439459 C42.5325162,34.7635674 41.9897479,35.5768661 41.9897479,36.7287672 C41.9897479,38.0841562 43.0751754,39.4394364 45.7886897,39.4394364 C51.2832917,39.4394364 53.5220472,32.9340263 53.9969149,24.7344072 C52.2331361,26.4285074 49.6553139,27.5127968 46.5348325,27.5127968 C37.3768718,27.5127968 32.2212275,22.4981078 32.2212275,13.9595598 C32.2212275,5.75994065 38.3266073,-7.06403652e-15 47.4166674,-7.06403652e-15 C59.4916259,-7.06403652e-15 62.9513919,8.26733958 62.9513919,18.5677083" id="Fill-70"></path>
                        <path d="M82.6229601,36.7965954 C82.6229601,37.8808848 82.6906427,38.897236 82.8264437,41.1335353 L74.0075497,41.1335353 C74.1432418,31.7819066 75.839229,20.8716186 88.4568468,7.18315879 L74.68601,7.18315879 C70.8192768,7.18315879 69.1233985,8.13178955 68.7841138,10.8424586 L66.2064006,10.8424586 C66.4776758,7.79296952 67.2917191,2.03281129 67.2917191,0.40654048 C68.173663,0.677640053 71.4976281,0.677640053 75.839229,0.677640053 L94.4264255,0.677640053 L94.8333927,3.79474076 C86.4895844,13.1464784 82.6229601,23.650117 82.6229601,36.7965954" id="Fill-71"></path>
                        <path d="M126.376434,29.681267 C125.358798,34.831397 124.951831,39.7106451 124.884149,41.336916 C124.476855,41.201475 122.170525,41.1336457 120.813714,41.1336457 L98.0206079,41.1336457 L97.8171243,35.7124162 L106.02535,28.0548873 C111.316686,23.1079187 116.268738,17.822239 116.268738,9.89371939 C116.268738,4.54021032 113.826608,2.30391095 110.570434,2.30391095 C107.857029,2.30391095 105.821866,3.7947409 105.821866,6.30213986 C105.821866,7.65742002 106.500217,9.01270018 106.500217,10.3680892 C106.500217,12.6720002 104.532955,13.688678 102.362209,13.688678 C99.309519,13.688678 97.6815412,11.5200991 97.6815412,8.87725926 C97.6815412,4.20139028 102.769176,0 111.180994,0 C118.982252,0 125.358798,3.18493016 125.358798,10.6391888 C125.358798,16.6703379 121.627757,21.007278 112.130621,28.1904371 L103.311944,34.6281267 L116.133155,34.6281267 C120.949515,34.6281267 123.188052,33.4760079 123.730821,29.681267 L126.376434,29.681267 Z" id="Fill-72"></path>
                    </g>
                </g>
            </g>
        </g>
    </g>
</svg>