<svg xmlns="http://www.w3.org/2000/svg" viewBox="0 0 849.39 174.99"><path d="M111.75 23.4l-30.66 91.24H68.38l-36-87.05-6.26 69.51c-.96 9.51 3.19 13.88 14.16 13.88l-.2 3.65H5l.2-3.65c10.96 0 14.75-4.37 15.81-13.88l6.43-72.79.02-.29c.88-9.06-2.63-10.96-15.05-10.96V9.41h43.12l30.69 74.25 24.7-74.25h38.88v3.65c-8.04 0-9.51 1.77-8.77 10.96l.01.2 6.59 75.8c.98 9.5 1.32 10.96 9.36 10.96l.2 3.65h-46.77l-.2-3.65c8.04 0 9.1-1.53 8.18-10.96l-6.65-76.62z"/><path d="M154.24 78.1c0-21.19 13.88-38 38.73-38s38.73 16.81 38.73 38-13.88 38-38.73 38-38.73-16.81-38.73-38zm50.39-1c-1.78-20.82-4.42-34.53-14.61-33.66-10.19.87-10.47 14.83-8.69 35.66 1.77 20.68 4.41 34.39 14.6 33.52 10.19-.88 10.46-14.84 8.7-35.52zm200.84 1c0-21.19 13.88-38 38.73-38 24.85 0 38.73 16.81 38.73 38s-13.88 38-38.73 38c-24.85 0-38.73-16.81-38.73-38zm50.38-1c-1.78-20.82-4.42-34.53-14.61-33.66-10.19.87-10.47 14.83-8.69 35.66 1.77 20.68 4.41 34.39 14.6 33.52 10.2-.88 10.47-14.84 8.7-35.52zm-134.56 33.88v3.65h-40.92v-3.65c6.43 0 7.31-.73 7.31-10.96V64.95c0-4.82-1.46-10.23-9.5-10.23-3.51 0-8.33 1.75-10.96 3.22v42.09c0 10.23.73 10.96 7.31 10.96v3.65H233.6v-3.65c6.58 0 7.31-.73 7.31-10.96V67.14c0-10.23-.73-10.96-7.31-13.88v-2.92l29.96-10.23h2.19l1.46 14.18c5.26-7.45 14.03-14.18 24.85-14.18 14.91 0 21.92 8.62 21.92 20.46v39.46c0 10.22.73 10.95 7.31 10.95zM397.72 5.02V94.9c0 10.96.73 11.69 7.31 11.69v3.65l-29.96 5.85h-2.19l-1.46-14.03c-2.92 6.43-9.21 14.03-21.19 14.03-15.93 0-28.5-11.84-28.5-36.54 0-28.36 19.15-39.46 38-39.46 3.65 0 7.75.44 11.69 1.61V29.14c0-10.23-.73-10.96-7.31-13.88v-2.92l31.42-7.31h2.19zm-26.3 93.25V73.72c0-21.78-2.34-30.4-11.4-30.4-8.33 0-11.25 8.19-11.25 32.59 0 20.17 3.65 27.04 12.42 27.04 4.09 0 7.89-2.2 10.23-4.68zm239.24-56.71v3.65c-7.31 0-9.65 3.65-13.15 13.88l-19.29 56.27H561.7l-18.12-50.28-17.25 50.28h-16.52l-22.95-60.65c-2.78-7.31-4.09-9.5-9.21-9.5v-3.65h44.28v3.65c-6.58 0-8.62 1.76-5.85 9.5l13.88 38.58 11.55-33.76-1.75-4.82c-2.63-7.31-3.95-9.5-9.06-9.5v-3.65h43.41v3.65c-6.58 0-8.18 1.76-5.41 9.5l13.15 38.44 11.69-34.05c3.36-9.79.29-13.88-9.21-13.88v-3.65h26.33zm60.53 42.97l3.36.88c-2.63 17.54-17.1 30.69-34.05 30.69-24.55 0-38.29-15.49-38.29-38 0-22.51 15.34-38 38.29-38 19 0 33.03 10.82 34.05 29.96h-45.31v2.92c0 17.25 7.75 27.77 21.05 27.77 11.4 0 18.86-7.3 20.9-16.22zm-41.8-18.56h19.44c-.88-16.52-3.95-22.65-9.06-22.65-7.31-.01-9.8 9.2-10.38 22.65zm87.98 45.01v3.65h-40.92v-3.65c6.58 0 7.31-.73 7.31-10.96V67.14c0-10.23-.73-10.96-7.31-13.88v-2.92l31.42-10.23h2.19v59.92c0 10.22.73 10.95 7.31 10.95zm-36.54-91.34c0-8.92 7.16-14.61 16.08-14.61 8.91 0 16.08 5.7 16.08 14.61s-7.16 14.61-16.08 14.61c-8.92 0-16.08-5.7-16.08-14.61zm69.28 23.67c-6.28 0-10.23 3.07-10.23 8.92 0 16.66 39.46 11.25 39.46 39.02 0 15.35-11.25 24.85-34.05 24.85-8.04 0-16.81-1.46-22.95-4.38l-3.65-16.08 2.92-1.46c11.84 13.3 16.22 18.56 25.58 18.56 6.72 0 11.11-3.65 11.11-9.79 0-16.95-38.15-10.96-38.15-39.46 0-11.69 9.21-23.38 30.55-23.38 7.6 0 18.27 1.46 24.85 4.53l2.34 15.93-2.63 1.32c-11.12-13.61-16.09-18.58-25.15-18.58zm65.03 0c-6.28 0-10.23 3.07-10.23 8.92 0 16.66 39.46 11.25 39.46 39.02 0 15.35-11.25 24.85-34.05 24.85-8.04 0-16.81-1.46-22.95-4.38l-3.65-16.08 2.92-1.46c11.84 13.3 16.22 18.56 25.58 18.56 6.72 0 11.11-3.65 11.11-9.79 0-16.95-38.15-10.96-38.15-39.46 0-11.69 9.21-23.38 30.55-23.38 7.6 0 18.27 1.46 24.85 4.53l2.34 15.93-2.63 1.32c-11.12-13.61-16.08-18.58-25.15-18.58zM10.9 148.77v13.01c.81.37 1.65.59 2.5.72v1.65H5.44v-1.65c.87-.13 1.75-.34 2.53-.72v-16.69c-1.19-1.53-2.09-2-2.96-2.09v-1.78h5.34l12.26 15.57v-13.07c-.78-.37-1.62-.59-2.47-.72v-1.78h7.89V143c-.84.13-1.72.34-2.5.72v20.5h-2.28L10.9 148.77zm32.11 12.33c-1.22 1.97-3.4 3.37-6.37 3.37-4.87 0-7.71-3.46-7.71-8.33 0-4.46 2.93-8.49 7.8-8.49 3.56 0 6.18 2.93 6.24 7.05-.28.5-.62.97-1.06 1.37h-8.92c.25 4.15 2.71 5.74 4.74 5.74 1.9 0 3.06-.75 4.09-1.87l1.19 1.16zm-10.02-6.9c2.87-.03 6.52-.09 6.52-.25 0-2.65-1.5-4.21-3.74-4.21-.28 0-.59.03-.87.06-1.19 1.09-1.75 2.59-1.91 4.4zm18.66-4.49c-.81.12-1.4.28-2.09.65l3.43 10.33 2.78-7.93-.81-2.37c-.69-.37-1.34-.56-2.09-.69v-1.78h7.86v1.84c-.81.13-1.28.25-1.97.62l3.21 10.02 3.21-10.02c-.62-.34-1.15-.5-1.97-.62v-1.84h6.8v1.81c-.78.12-1.53.28-2.31.65l-4.87 13.82H59.7l-2.87-8.36-3.03 8.36h-3.3l-5.02-13.86c-.72-.34-1.5-.53-2.28-.65v-1.78h8.46v1.8zm24.53 14.76c-1.72 0-3.71-.47-5.12-1.37l-.25-3.71h2.56l.84 2.43c.87.41 1.87.69 3.06.69.31 0 .75-.03.97-.06.62-.56.97-1.28.97-2.22 0-3.43-8.46-1.97-8.46-7.55 0-2.9 2.81-5.05 6.46-5.05 1.68 0 3.06.37 4.65 1.06v3.84h-2.62l-.81-2.34c-.72-.28-1.5-.44-2.28-.44-.28 0-.59.03-.87.06-.69.53-1.03 1.15-1.03 1.87 0 3.43 8.43 2.15 8.43 7.64-.01 3.12-2.66 5.15-6.5 5.15zm29.21-6.49l3.53 4.06c.75.34 1.47.56 2.28.69v1.44h-5.43l-2.62-3.06c-1.75 2-3.87 3.37-6.74 3.37-3.4 0-6.09-2.31-6.09-5.65 0-3.06 2.37-5.18 4.9-7.05-2.12-2.5-2.87-3.84-2.87-5.59 0-2.68 2.37-5.21 6.4-5.21 3.96 0 5.43 2.34 5.43 4.34 0 2.43-2.37 4.03-4.77 5.71l4.65 5.37c.53-1.12.94-2.22 1.31-3.31-.5-.28-1.15-.53-1.75-.62V151h6.58v1.47c-.59.09-1.53.41-2.09.66-.88 1.54-1.73 3.25-2.72 4.85zm-7.34 3.52c1.62 0 2.9-.72 3.9-1.81l-5.49-6.46c-1.31 1.22-2.25 2.62-2.25 4.46.01 2.47 1.63 3.81 3.84 3.81zm.1-11.92c1.59-1.25 2.81-2.5 2.81-3.99 0-1.25-.78-2.56-2.47-2.56-.37 0-.81.09-1.31.22-.75.72-1 1.59-1.03 2.47 0 1.18.56 2.18 2 3.86zm31.14-8.67c6.21 0 10.33 5.21 10.33 11.86 0 6.77-4.21 11.7-10.77 11.7-6.43 0-10.39-5.24-10.39-11.83 0-6.52 3.84-11.73 10.83-11.73zm.65 21.18c.87 0 1.75-.12 2.62-.5 1.53-1.59 2.43-3.9 2.43-7.74 0-6.71-2.62-10.33-6.93-10.33-1.06 0-2.06.31-3.06.84-1.31 1.68-1.93 3.99-1.93 7.21.01 7.4 3.16 10.52 6.87 10.52zm13.67-8.33c0-.81-.06-2.87-.13-3.34l-2.71-.34v-1.9l6.4-.44.12 2.22c1.65-1.59 3.06-2.34 4.93-2.34 3.68 0 6.21 3.46 6.21 8.08 0 5.21-3.03 8.77-7.46 8.77-1.44 0-2.53-.37-3.43-.97v4.37c.72.34 1.47.53 2.28.66V170h-8.52v-1.47c.78-.13 1.56-.31 2.31-.66v-14.11zm7.34 8.68c.31 0 .62-.03.97-.09 1.65-1 2.56-2.96 2.56-6.05 0-3.87-1.56-5.8-4.15-5.8-1 0-1.87.31-2.78.84v8.11c-.01 1.74 1.37 2.99 3.4 2.99zm12.23-8.68c0-.81-.03-2.87-.12-3.34l-2.68-.34v-1.9l6.61-.44c.09 1.62.13 4.09.13 6.02v8.27c.75.34 1.5.56 2.28.69v1.44h-8.52v-1.44c.81-.13 1.59-.34 2.31-.69v-8.27zm1.68-9.36c-1.37 0-2.43-1.09-2.43-2.46 0-1.34 1.06-2.43 2.43-2.43 1.31 0 2.4 1.09 2.4 2.43 0 1.37-1.09 2.46-2.4 2.46zm8.55 9.36c0-.81-.03-2.87-.09-3.34l-2.71-.34v-1.9l6.4-.44c.06.62.09 1.53.12 2.43 1.72-1.62 3.09-2.56 5.18-2.56 3.12 0 4.93 2.46 4.93 5.84v8.58c.72.34 1.47.56 2.25.69v1.44h-8.05v-1.5c.72-.12 1.22-.25 1.84-.59v-8.18c0-2.75-1.4-3.34-2.75-3.34-1.06 0-2.12.44-3.15 1.03v10.48c.62.34 1.09.47 1.81.59v1.5h-8.05v-1.44c.78-.13 1.56-.34 2.28-.69v-8.26zm20.13 0c0-.81-.03-2.87-.12-3.34l-2.68-.34v-1.9l6.61-.44c.09 1.62.13 4.09.13 6.02v8.27c.75.34 1.5.56 2.28.69v1.44h-8.52v-1.44c.81-.13 1.59-.34 2.31-.69v-8.27zm1.68-9.36c-1.37 0-2.43-1.09-2.43-2.46 0-1.34 1.06-2.43 2.43-2.43 1.31 0 2.4 1.09 2.4 2.43.01 1.37-1.08 2.46-2.4 2.46zm13.95 3.22c4.59 0 7.49 3.59 7.49 8.49 0 5.09-3.21 8.36-7.96 8.36-4.62 0-7.52-3.56-7.52-8.46 0-5.12 3.22-8.39 7.99-8.39zm-2.24 2.52c-1.12 1.03-1.68 2.62-1.68 4.99 0 4.62 1.59 7.4 4.37 7.4.47 0 .9-.09 1.31-.25 1.12-.97 1.69-2.56 1.69-5.02 0-4.62-1.65-7.4-4.37-7.4-.48 0-.92.1-1.32.28zm14.13 3.62c0-.81-.03-2.87-.09-3.34l-2.71-.34v-1.9l6.4-.44c.06.62.09 1.53.12 2.43 1.72-1.62 3.09-2.56 5.18-2.56 3.12 0 4.93 2.46 4.93 5.84v8.58c.72.34 1.47.56 2.25.69v1.44h-8.05v-1.5c.72-.12 1.22-.25 1.84-.59v-8.18c0-2.75-1.4-3.34-2.75-3.34-1.06 0-2.12.44-3.15 1.03v10.48c.62.34 1.09.47 1.81.59v1.5h-8.05v-1.44c.78-.13 1.56-.34 2.28-.69v-8.26zm32.42-12.54h4.43l7.43 20.56c.81.37 1.65.59 2.5.72v1.65h-9.7v-1.65c.84-.13 1.69-.34 2.5-.72l-1.62-4.74h-8.36l-1.65 4.74c.78.37 1.56.59 2.43.72v1.65h-7.93v-1.65c.84-.13 1.68-.34 2.5-.72l7.47-20.56zm-2.03 13.45h6.74l-3.34-9.77-3.4 9.77zm22.1-4.93c1.53-1.44 2.9-2.12 4.68-2.12 3.68 0 6.18 3.46 6.18 8.08 0 5.21-3 8.77-7.43 8.77-1.93 0-3.25-.69-4.37-1.65l-1.22 1.34h-1.81v-17.63c0-.78-.03-2.84-.09-3.31l-2.71-.34v-1.9l6.61-.47c.09 1.65.16 4.12.16 6.02v3.21zm0 1.59v7.89c0 1.78 1.34 3.18 3.4 3.18.34 0 .69-.03 1.03-.09 1.62-1.03 2.5-3 2.5-6.02 0-3.87-1.59-5.8-4.15-5.8-1 0-1.88.31-2.78.84zm20.66-3.71c4.59 0 7.49 3.59 7.49 8.49 0 5.09-3.21 8.36-7.96 8.36-4.62 0-7.52-3.56-7.52-8.46 0-5.12 3.21-8.39 7.99-8.39zm-2.25 2.52c-1.12 1.03-1.68 2.62-1.68 4.99 0 4.62 1.59 7.4 4.37 7.4.47 0 .9-.09 1.31-.25 1.12-.97 1.69-2.56 1.69-5.02 0-4.62-1.65-7.4-4.37-7.4-.48 0-.91.1-1.32.28zm17.66 8.02c0 2.84 1.44 3.37 2.81 3.37 1.09 0 2.06-.41 3.12-1.09v-6.68c0-.81-.03-2.87-.12-3.34l-2.71-.34v-1.9l6.65-.44c.09 1.62.12 4.09.12 6.02v4.9c0 .91.09 2.78.12 3.28l2.43.25v1.62l-5.99.62c-.09-.69-.19-1.62-.25-2.5-1.37 1.47-3.03 2.53-5.15 2.53-3.15 0-4.96-2.46-4.96-5.84v-4.87c0-.81-.03-2.87-.12-3.34l-2.71-.34v-1.9l6.65-.44c.06 1.62.12 4.09.12 6.02v4.41zm19.66-7.74v9.64c0 1.28.41 2.15 1.72 2.15.62 0 1.06-.22 1.53-.47l.44 1.56c-.81.59-1.84 1.19-3.46 1.19-2.68 0-4.15-1.72-4.15-4.49v-9.58h-2.34v-2.28h2.34v-4.09l3.93-1v5.09h3.37v2.28h-3.38zm13.64-6.7c-.78-.37-1.62-.59-2.46-.72v-1.78h8.58c6.27 0 9.11 2.59 9.11 6.74 0 3.71-2.68 7.27-7.8 7.27-1.06 0-2.03-.12-3.06-.41v6.96c.78.37 1.62.59 2.5.72v1.65h-9.39v-1.65c.84-.13 1.72-.34 2.53-.72v-18.06zm4.37-.13v9.14c.62.19 1.28.25 1.93.25 1.22 0 2.43-.28 3.5-.87.75-1.19 1.09-2.53 1.09-4.03 0-3-1.44-4.49-4.93-4.49h-1.59zm21.25 18.72c-1.34 1.37-2.5 2.15-4.59 2.15-2.71 0-4.46-1.84-4.46-4.18 0-2.25 1.03-4.68 8.8-5.4v-.9c0-3.28-.81-4.24-2.75-4.24-.37 0-.78.03-1.15.06l-.84 3.06h-2.87v-4.12c1.68-.62 3.68-1.12 5.65-1.12 4.31 0 5.9 2.59 5.9 6.37v6.65c0 1.31.56 1.68 1.34 1.68.22 0 .56-.09.75-.16l.25 1.5c-.56.41-1.47.75-2.68.75-1.64-.01-2.85-.82-3.35-2.1zm-.25-1.68v-3.68c-1.9.16-3.53.53-4.81.94-.22.47-.31.94-.31 1.4 0 1.53.81 2.62 2.47 2.62 1.24 0 1.96-.56 2.65-1.28zm9.89-14.11c0-.78-.03-2.84-.12-3.31l-2.71-.34v-1.9l6.65-.47c.06 1.65.12 4.12.12 6.02v15.51c.75.34 1.5.56 2.28.69v1.44h-8.52v-1.44c.81-.13 1.59-.34 2.31-.69v-15.51zm21.9 14.58c-1.22 1.97-3.4 3.37-6.37 3.37-4.87 0-7.71-3.46-7.71-8.33 0-4.46 2.93-8.49 7.8-8.49 3.56 0 6.18 2.93 6.24 7.05-.28.5-.62.97-1.06 1.37h-8.92c.25 4.15 2.71 5.74 4.74 5.74 1.9 0 3.06-.75 4.09-1.87l1.19 1.16zm-10.01-6.9c2.87-.03 6.52-.09 6.52-.25 0-2.65-1.5-4.21-3.74-4.21-.28 0-.59.03-.87.06-1.2 1.09-1.76 2.59-1.91 4.4zm17.6 10.27c-1.72 0-3.71-.47-5.12-1.37l-.25-3.71h2.56l.84 2.43c.87.41 1.87.69 3.06.69.31 0 .75-.03.97-.06.62-.56.97-1.28.97-2.22 0-3.43-8.46-1.97-8.46-7.55 0-2.9 2.81-5.05 6.46-5.05 1.68 0 3.06.37 4.65 1.06v3.84h-2.62l-.81-2.34c-.72-.28-1.5-.44-2.28-.44-.28 0-.59.03-.87.06-.69.53-1.03 1.15-1.03 1.87 0 3.43 8.43 2.15 8.43 7.64-.01 3.12-2.67 5.15-6.5 5.15zm14.32-14.05v9.64c0 1.28.41 2.15 1.72 2.15.62 0 1.06-.22 1.53-.47l.44 1.56c-.81.59-1.84 1.19-3.46 1.19-2.68 0-4.15-1.72-4.15-4.49v-9.58h-2.34v-2.28h2.34v-4.09l3.93-1v5.09h3.37v2.28h-3.38zm8.24 3.34c0-.81-.03-2.87-.12-3.34l-2.68-.34v-1.9l6.61-.44c.09 1.62.13 4.09.13 6.02v8.27c.75.34 1.5.56 2.28.69v1.44h-8.52v-1.44c.81-.13 1.59-.34 2.31-.69v-8.27zm1.68-9.36c-1.37 0-2.43-1.09-2.43-2.46 0-1.34 1.06-2.43 2.43-2.43 1.31 0 2.4 1.09 2.4 2.43.01 1.37-1.09 2.46-2.4 2.46zm8.55 9.36c0-.81-.03-2.87-.09-3.34l-2.71-.34v-1.9l6.4-.44c.06.62.09 1.53.13 2.43 1.72-1.62 3.09-2.56 5.18-2.56 3.12 0 4.93 2.46 4.93 5.84v8.58c.72.34 1.47.56 2.25.69v1.44h-8.05v-1.5c.72-.12 1.22-.25 1.84-.59v-8.18c0-2.75-1.4-3.34-2.75-3.34-1.06 0-2.12.44-3.15 1.03v10.48c.62.34 1.09.47 1.81.59v1.5h-8.05v-1.44c.78-.13 1.56-.34 2.28-.69v-8.26zm31.27 7.34c-1.22 1.97-3.4 3.37-6.36 3.37-4.87 0-7.71-3.46-7.71-8.33 0-4.46 2.93-8.49 7.8-8.49 3.56 0 6.18 2.93 6.24 7.05-.28.5-.62.97-1.06 1.37h-8.92c.25 4.15 2.71 5.74 4.74 5.74 1.9 0 3.06-.75 4.09-1.87l1.18 1.16zm-10.02-6.9c2.87-.03 6.52-.09 6.52-.25 0-2.65-1.5-4.21-3.74-4.21-.28 0-.59.03-.87.06-1.19 1.09-1.75 2.59-1.91 4.4zm14.95 5.05c1.5 0 2.56 1.15 2.56 2.96 0 2.18-1.47 4.81-3.71 6.02l-1.09-.94a6.3 6.3 0 0 0 2-3.12c-1.31 0-2.34-.97-2.34-2.4-.01-1.36 1.05-2.52 2.58-2.52zm13.64-15.53c-.81-.37-1.65-.62-2.5-.75v-1.75h9.36v1.75c-.87.13-1.72.37-2.5.75v18.16c.78.41 1.62.59 2.47.72v1.56h-9.36v-1.56c.87-.12 1.75-.31 2.53-.72v-18.16zm14.79 20.75c-1.72 0-3.71-.47-5.12-1.37l-.25-3.71h2.56l.84 2.43c.87.41 1.87.69 3.06.69.31 0 .75-.03.97-.06.62-.56.97-1.28.97-2.22 0-3.43-8.46-1.97-8.46-7.55 0-2.9 2.81-5.05 6.46-5.05 1.68 0 3.06.37 4.65 1.06v3.84h-2.62l-.81-2.34c-.72-.28-1.5-.44-2.28-.44-.28 0-.59.03-.87.06-.69.53-1.03 1.15-1.03 1.87 0 3.43 8.43 2.15 8.43 7.64-.01 3.12-2.67 5.15-6.5 5.15zm11.11-10.71c0-.81-.03-2.87-.09-3.34l-2.71-.34v-1.9l6.49-.44c.09 1.15.19 2.68.25 4.18 1.25-2.4 2.81-4.21 5.09-4.21.94 0 1.59.19 2.15.53v5.18h-2.75l-.75-2.47c-1.59 0-2.62 1.25-3.71 3.37v7.71c.75.34 1.47.56 2.25.69v1.44h-8.49v-1.44c.78-.13 1.56-.34 2.28-.69v-8.27zm21.31 8.55c-1.34 1.37-2.5 2.15-4.59 2.15-2.72 0-4.46-1.84-4.46-4.18 0-2.25 1.03-4.68 8.8-5.4v-.9c0-3.28-.81-4.24-2.75-4.24-.37 0-.78.03-1.15.06l-.84 3.06h-2.87v-4.12c1.68-.62 3.68-1.12 5.65-1.12 4.31 0 5.9 2.59 5.9 6.37v6.65c0 1.31.56 1.68 1.34 1.68.22 0 .56-.09.75-.16l.25 1.5c-.56.41-1.47.75-2.68.75-1.63-.01-2.85-.82-3.35-2.1zm-.25-1.68v-3.68c-1.9.16-3.53.53-4.81.94-.22.47-.31.94-.31 1.4 0 1.53.81 2.62 2.46 2.62 1.26 0 1.97-.56 2.66-1.28zm21.4.47c-1.22 1.97-3.4 3.37-6.36 3.37-4.87 0-7.71-3.46-7.71-8.33 0-4.46 2.93-8.49 7.8-8.49 3.56 0 6.18 2.93 6.24 7.05-.28.5-.62.97-1.06 1.37h-8.92c.25 4.15 2.71 5.74 4.74 5.74 1.9 0 3.06-.75 4.09-1.87l1.18 1.16zm-10.01-6.9c2.87-.03 6.52-.09 6.52-.25 0-2.65-1.5-4.21-3.74-4.21-.28 0-.59.03-.87.06-1.19 1.09-1.76 2.59-1.91 4.4zm13.7-7.68c0-.78-.03-2.84-.13-3.31l-2.71-.34v-1.9l6.65-.47c.06 1.65.12 4.12.12 6.02v15.51c.75.34 1.5.56 2.28.69v1.44h-8.52v-1.44c.81-.13 1.59-.34 2.31-.69v-15.51zm28.52 11.46l3.53 4.06c.75.34 1.47.56 2.28.69v1.44h-5.43l-2.62-3.06c-1.75 2-3.87 3.37-6.74 3.37-3.4 0-6.08-2.31-6.08-5.65 0-3.06 2.37-5.18 4.9-7.05-2.12-2.5-2.87-3.84-2.87-5.59 0-2.68 2.37-5.21 6.4-5.21 3.96 0 5.43 2.34 5.43 4.34 0 2.43-2.37 4.03-4.77 5.71l4.65 5.37c.53-1.12.94-2.22 1.31-3.31-.5-.28-1.15-.53-1.75-.62V151h6.58v1.47c-.59.09-1.53.41-2.09.66-.89 1.54-1.73 3.25-2.73 4.85zm-7.33 3.52c1.62 0 2.9-.72 3.9-1.81l-5.49-6.46c-1.31 1.22-2.25 2.62-2.25 4.46 0 2.47 1.62 3.81 3.84 3.81zm.09-11.92c1.59-1.25 2.81-2.5 2.81-3.99 0-1.25-.78-2.56-2.46-2.56-.37 0-.81.09-1.31.22-.75.72-1 1.59-1.03 2.47-.01 1.18.55 2.18 1.99 3.86zm26.09.84v9.64c0 1.28.41 2.15 1.72 2.15.62 0 1.06-.22 1.53-.47l.44 1.56c-.81.59-1.84 1.19-3.46 1.19-2.68 0-4.15-1.72-4.15-4.49v-9.58h-2.34v-2.28h2.34v-4.09l3.93-1v5.09h3.37v2.28h-3.38zm7.05-3.9c0-.78-.03-2.84-.12-3.31l-2.72-.34v-1.9l6.65-.47c.06 1.65.13 4.12.13 6.02v3.43c1.59-1.5 2.9-2.34 4.93-2.34 3.12 0 4.93 2.46 4.93 5.84v8.58c.75.34 1.47.56 2.28.69v1.44h-8.08v-1.5c.75-.12 1.22-.25 1.87-.59v-8.18c0-2.75-1.4-3.34-2.78-3.34-1.09 0-2.12.44-3.15 1.06v10.45c.62.34 1.12.47 1.84.59v1.5h-8.08v-1.44c.81-.13 1.56-.34 2.31-.69v-15.5zM648 161.1c-1.22 1.97-3.4 3.37-6.36 3.37-4.87 0-7.71-3.46-7.71-8.33 0-4.46 2.93-8.49 7.8-8.49 3.56 0 6.18 2.93 6.24 7.05-.28.5-.62.97-1.06 1.37h-8.92c.25 4.15 2.71 5.74 4.74 5.74 1.9 0 3.06-.75 4.09-1.87l1.18 1.16zm-10.01-6.9c2.87-.03 6.52-.09 6.52-.25 0-2.65-1.5-4.21-3.74-4.21-.28 0-.59.03-.87.06-1.19 1.09-1.76 2.59-1.91 4.4zm37.44 1.84c0 5.37-3.68 8.46-8.89 8.46-5.24 0-8.61-3.62-8.61-8.46v-12.32a9.38 9.38 0 0 0-2.5-.72v-1.78h9.36V143c-.87.13-1.72.34-2.5.72v12.32c0 3.31 1.53 5.65 5.18 5.65 1.28 0 2.37-.34 3.31-.94 1-1.09 1.53-2.56 1.53-4.71v-12.32c-.78-.37-1.62-.59-2.47-.72v-1.78h8.08V143c-.84.13-1.68.34-2.5.72v12.32zm6.06-2.28c0-.81-.03-2.87-.09-3.34l-2.71-.34v-1.9l6.4-.44c.06.62.09 1.53.13 2.43 1.72-1.62 3.09-2.56 5.18-2.56 3.12 0 4.93 2.46 4.93 5.84v8.58c.72.34 1.47.56 2.25.69v1.44h-8.05v-1.5c.72-.12 1.22-.25 1.84-.59v-8.18c0-2.75-1.4-3.34-2.75-3.34-1.06 0-2.12.44-3.15 1.03v10.48c.62.34 1.09.47 1.81.59v1.5h-8.05v-1.44c.78-.13 1.56-.34 2.28-.69v-8.26zm20.13 0c0-.81-.03-2.87-.13-3.34l-2.68-.34v-1.9l6.62-.44c.09 1.62.13 4.09.13 6.02v8.27c.75.34 1.5.56 2.28.69v1.44h-8.52v-1.44c.81-.13 1.59-.34 2.31-.69v-8.27zm1.68-9.36c-1.37 0-2.43-1.09-2.43-2.46 0-1.34 1.06-2.43 2.43-2.43 1.31 0 2.4 1.09 2.4 2.43 0 1.37-1.09 2.46-2.4 2.46zm11.76 6.02v9.64c0 1.28.41 2.15 1.72 2.15.62 0 1.06-.22 1.53-.47l.44 1.56c-.81.59-1.84 1.19-3.46 1.19-2.68 0-4.15-1.72-4.15-4.49v-9.58h-2.34v-2.28h2.34v-4.09l3.93-1v5.09h3.37v2.28h-3.38zm19.38 10.68c-1.22 1.97-3.4 3.37-6.37 3.37-4.87 0-7.71-3.46-7.71-8.33 0-4.46 2.93-8.49 7.8-8.49 3.56 0 6.18 2.93 6.24 7.05-.28.5-.62.97-1.06 1.37h-8.92c.25 4.15 2.71 5.74 4.74 5.74 1.9 0 3.06-.75 4.09-1.87l1.19 1.16zm-10.01-6.9c2.87-.03 6.52-.09 6.52-.25 0-2.65-1.5-4.21-3.74-4.21-.28 0-.59.03-.87.06-1.2 1.09-1.76 2.59-1.91 4.4zm26.64 4.46c0 .91.09 2.78.12 3.28l2.4.25v1.62l-5.96.59c-.13-.75-.22-1.59-.28-2.43-1.47 1.65-3.06 2.5-4.9 2.5-3.71 0-6.21-3.43-6.21-8.11 0-5.12 2.84-8.74 7.21-8.74 1.47 0 2.68.41 3.68 1.03v-2.12c0-.78-.03-2.84-.13-3.31l-2.71-.34v-1.9l6.65-.47c.06 1.65.13 4.12.13 6.02v12.13zm-7.67-8.64c-.31 0-.66.03-.97.09-1.53 1.03-2.25 2.93-2.25 5.8 0 3.96 1.59 5.9 4.09 5.9 1.09 0 1.97-.44 2.87-1.15v-7.49c0-1.75-1.62-3.15-3.74-3.15zm17.35 7.52h2.87l.66 3.18c1.34.87 2.9 1.37 4.59 1.37.41 0 .84-.03 1.28-.09 1.09-.78 1.75-1.87 1.75-3.25 0-5.87-11.08-3.46-11.08-11.11 0-3.9 3.71-6.71 8.27-6.71 1.93 0 3.84.5 5.8 1.44v5.71h-2.81l-1-3.96c-1.06-.47-2.25-.75-3.4-.75-.34 0-.72.03-1.06.09-1.22.81-1.78 1.81-1.78 3.06 0 5.02 10.98 3.28 11.01 11.05 0 3.81-3.49 6.9-8.42 6.9-2.22 0-4.81-.72-6.62-2.03l-.06-4.9zm22.84-7.12v9.64c0 1.28.41 2.15 1.72 2.15.62 0 1.06-.22 1.53-.47l.44 1.56c-.81.59-1.84 1.19-3.46 1.19-2.68 0-4.15-1.72-4.15-4.49v-9.58h-2.34v-2.28h2.34v-4.09l3.93-1v5.09h3.37v2.28h-3.38zm14.45 11.89c-1.34 1.37-2.5 2.15-4.59 2.15-2.72 0-4.46-1.84-4.46-4.18 0-2.25 1.03-4.68 8.8-5.4v-.9c0-3.28-.81-4.24-2.75-4.24-.37 0-.78.03-1.15.06l-.84 3.06h-2.87v-4.12c1.68-.62 3.68-1.12 5.65-1.12 4.31 0 5.9 2.59 5.9 6.37v6.65c0 1.31.56 1.68 1.34 1.68.22 0 .56-.09.75-.16l.25 1.5c-.56.41-1.47.75-2.68.75-1.64-.01-2.85-.82-3.35-2.1zm-.25-1.68v-3.68c-1.9.16-3.53.53-4.81.94-.22.47-.31.94-.31 1.4 0 1.53.81 2.62 2.46 2.62 1.25 0 1.97-.56 2.66-1.28zm13.13-10.21v9.64c0 1.28.41 2.15 1.72 2.15.62 0 1.06-.22 1.53-.47l.44 1.56c-.81.59-1.84 1.19-3.46 1.19-2.68 0-4.15-1.72-4.15-4.49v-9.58h-2.34v-2.28H807v-4.09l3.93-1v5.09h3.37v2.28h-3.38zm19.38 10.68c-1.22 1.97-3.4 3.37-6.37 3.37-4.87 0-7.71-3.46-7.71-8.33 0-4.46 2.93-8.49 7.8-8.49 3.56 0 6.18 2.93 6.24 7.05-.28.5-.62.97-1.06 1.37h-8.92c.25 4.15 2.71 5.74 4.74 5.74 1.9 0 3.06-.75 4.09-1.87l1.19 1.16zm-10.01-6.9c2.87-.03 6.52-.09 6.52-.25 0-2.65-1.5-4.21-3.74-4.21-.28 0-.59.03-.87.06-1.2 1.09-1.76 2.59-1.91 4.4zm17.59 10.27c-1.72 0-3.71-.47-5.12-1.37l-.25-3.71h2.56l.84 2.43c.87.41 1.87.69 3.06.69.31 0 .75-.03.97-.06.62-.56.97-1.28.97-2.22 0-3.43-8.46-1.97-8.46-7.55 0-2.9 2.81-5.05 6.46-5.05 1.68 0 3.06.37 4.65 1.06v3.84h-2.62l-.81-2.34c-.72-.28-1.5-.44-2.28-.44-.28 0-.59.03-.87.06-.69.53-1.03 1.15-1.03 1.87 0 3.43 8.43 2.15 8.43 7.64 0 3.12-2.66 5.15-6.5 5.15z"/></svg>